<mxfile host="65bd71144e">
    <diagram id="h6iLOTjvrZjWlB6wbwkS" name="Page-1">
        <mxGraphModel dx="1676" dy="2082" grid="1" gridSize="10" guides="1" tooltips="1" connect="1" arrows="1" fold="1" page="1" pageScale="1" pageWidth="850" pageHeight="1100" math="0" shadow="0">
            <root>
                <mxCell id="0"/>
                <mxCell id="1" parent="0"/>
                <mxCell id="18" value="" style="edgeStyle=none;html=1;fontFamily=Georgia;fontSize=27;" parent="1" source="2" target="10" edge="1">
                    <mxGeometry relative="1" as="geometry"/>
                </mxCell>
                <mxCell id="2" value="LOGO" style="rounded=1;whiteSpace=wrap;html=1;fontFamily=Georgia;fontSize=27;" parent="1" vertex="1">
                    <mxGeometry x="90" y="-1060" width="120" height="80" as="geometry"/>
                </mxCell>
                <object label="" id="9">
                    <mxCell style="strokeWidth=1;shadow=0;dashed=0;align=right;html=1;shape=mxgraph.mockup.forms.rrect;rSize=0;strokeColor=#999999;fontFamily=Georgia;fontSize=27;" parent="1" vertex="1">
                        <mxGeometry x="220" y="-1042.5" width="506" height="45" as="geometry"/>
                    </mxCell>
                </object>
                <mxCell id="10" value="Nhân viên" style="strokeColor=inherit;fillColor=inherit;gradientColor=inherit;strokeWidth=1;shadow=0;dashed=0;align=center;html=1;shape=mxgraph.mockup.forms.rrect;rSize=0;fontSize=17;fontColor=#666666;fontFamily=Georgia;spacingLeft=30;" parent="9" vertex="1">
                    <mxGeometry width="140" height="45" as="geometry"/>
                </mxCell>
                <mxCell id="14" value="Bảng lương" style="strokeColor=inherit;fillColor=inherit;gradientColor=inherit;strokeWidth=1;shadow=0;dashed=0;align=center;html=1;shape=mxgraph.mockup.forms.rrect;rSize=0;fontSize=17;fontColor=#666666;fontFamily=Georgia;" parent="9" vertex="1">
                    <mxGeometry x="323.84000000000003" width="182.16" height="45" as="geometry"/>
                </mxCell>
                <mxCell id="20" value="&lt;font style=&quot;font-size: 10px&quot;&gt;icon&lt;/font&gt;" style="shape=ext;double=1;rounded=1;whiteSpace=wrap;html=1;fontFamily=Georgia;fontSize=27;align=center;horizontal=1;verticalAlign=middle;labelBackgroundColor=none;spacingLeft=0;spacingBottom=12;" parent="9" vertex="1">
                    <mxGeometry x="10" y="12.5" width="30" height="20" as="geometry"/>
                </mxCell>
                <mxCell id="26" value="&lt;font style=&quot;font-size: 10px&quot;&gt;icon&lt;/font&gt;" style="shape=ext;double=1;rounded=1;whiteSpace=wrap;html=1;fontFamily=Georgia;fontSize=27;align=center;horizontal=1;verticalAlign=middle;labelBackgroundColor=none;spacingLeft=0;spacingBottom=12;" parent="9" vertex="1">
                    <mxGeometry x="338" y="12.5" width="30" height="20" as="geometry"/>
                </mxCell>
                <mxCell id="17" style="edgeStyle=none;html=1;fontFamily=Georgia;fontSize=27;startArrow=none;" parent="1" source="13" edge="1">
                    <mxGeometry relative="1" as="geometry">
                        <mxPoint x="360" y="-1020" as="targetPoint"/>
                    </mxGeometry>
                </mxCell>
                <mxCell id="13" value="Phòng ban" style="strokeColor=inherit;fillColor=inherit;gradientColor=inherit;strokeWidth=1;shadow=0;dashed=0;align=center;html=1;shape=mxgraph.mockup.forms.rrect;rSize=0;fontSize=17;fontColor=#666666;fontFamily=Georgia;spacingLeft=27;" parent="1" vertex="1">
                    <mxGeometry x="360" y="-1042.5" width="190" height="45" as="geometry"/>
                </mxCell>
                <mxCell id="19" value="" style="edgeStyle=none;html=1;fontFamily=Georgia;fontSize=27;endArrow=none;" parent="1" source="10" target="13" edge="1">
                    <mxGeometry relative="1" as="geometry">
                        <mxPoint x="360" y="-1020" as="targetPoint"/>
                        <mxPoint x="352.15999999999997" y="-1020" as="sourcePoint"/>
                    </mxGeometry>
                </mxCell>
                <mxCell id="25" value="&lt;font style=&quot;font-size: 10px&quot;&gt;icon&lt;/font&gt;" style="shape=ext;double=1;rounded=1;whiteSpace=wrap;html=1;fontFamily=Georgia;fontSize=27;align=center;horizontal=1;verticalAlign=middle;labelBackgroundColor=none;spacingLeft=0;spacingBottom=12;" parent="1" vertex="1">
                    <mxGeometry x="380" y="-1030" width="30" height="20" as="geometry"/>
                </mxCell>
                <mxCell id="27" value="&lt;font style=&quot;font-size: 17px;&quot;&gt;Nhân viên&lt;/font&gt;" style="strokeWidth=1;shadow=0;dashed=0;align=center;html=1;shape=mxgraph.mockup.navigation.anchor;fontSize=17;fontColor=#666666;fontStyle=1;labelBackgroundColor=none;fontFamily=Georgia;" parent="1" vertex="1">
                    <mxGeometry x="90" y="-965" width="80" height="40" as="geometry"/>
                </mxCell>
                <mxCell id="28" value="&gt;" style="strokeWidth=1;shadow=0;dashed=0;align=center;html=1;shape=mxgraph.mockup.navigation.anchor;fontSize=24;fontColor=#aaaaaa;fontStyle=1;labelBackgroundColor=none;fontFamily=Georgia;" parent="1" vertex="1">
                    <mxGeometry x="180" y="-960" width="20" height="30" as="geometry"/>
                </mxCell>
                <mxCell id="36" value="" style="endArrow=none;html=1;fontFamily=Georgia;fontSize=12;" parent="1" edge="1">
                    <mxGeometry width="50" height="50" relative="1" as="geometry">
                        <mxPoint x="70" y="-900" as="sourcePoint"/>
                        <mxPoint x="760" y="-900" as="targetPoint"/>
                    </mxGeometry>
                </mxCell>
                <mxCell id="38" value="M" style="swimlane;startSize=0;labelBackgroundColor=none;fontFamily=Georgia;fontSize=12;" parent="1" vertex="1">
                    <mxGeometry x="70" y="-845" width="690" height="590" as="geometry"/>
                </mxCell>
                <mxCell id="39" value="" style="whiteSpace=wrap;html=1;aspect=fixed;labelBackgroundColor=none;fontFamily=Georgia;fontSize=12;" parent="38" vertex="1">
                    <mxGeometry x="30" y="20" width="180" height="180" as="geometry"/>
                </mxCell>
                <mxCell id="167" value="&lt;font style=&quot;font-size: 14px&quot;&gt;Mã nhân viên:&lt;br&gt;Hệ số lương&lt;br&gt;Số ngày làm thêm&lt;/font&gt;" style="strokeWidth=1;shadow=0;dashed=0;align=center;html=1;shape=mxgraph.mockup.text.bulletedList;textColor=#666666;mainText=,,,,;textSize=17;bulletStyle=none;strokeColor=none;fillColor=none;align=left;verticalAlign=top;fontSize=17;fontColor=#666666;" vertex="1" parent="38">
                    <mxGeometry x="40" y="95" width="140" height="82.5" as="geometry"/>
                </mxCell>
                <mxCell id="168" value="Lương: 10,000,000 VNĐ" style="rounded=1;whiteSpace=wrap;html=1;fontSize=12;" vertex="1" parent="38">
                    <mxGeometry x="40" y="165" width="140" height="28" as="geometry"/>
                </mxCell>
                <mxCell id="169" value="&lt;b&gt;Tên nhân viên&lt;/b&gt;" style="text;html=1;strokeColor=none;fillColor=none;align=center;verticalAlign=middle;whiteSpace=wrap;rounded=0;fontSize=12;" vertex="1" parent="38">
                    <mxGeometry x="55" y="45" width="130" height="30" as="geometry"/>
                </mxCell>
                <mxCell id="170" value="" style="whiteSpace=wrap;html=1;aspect=fixed;labelBackgroundColor=none;fontFamily=Georgia;fontSize=12;" vertex="1" parent="38">
                    <mxGeometry x="250" y="20" width="180" height="180" as="geometry"/>
                </mxCell>
                <mxCell id="171" value="&lt;font style=&quot;font-size: 14px&quot;&gt;Mã nhân viên:&lt;br&gt;Hệ số lương&lt;br&gt;Số ngày làm thêm&lt;/font&gt;" style="strokeWidth=1;shadow=0;dashed=0;align=center;html=1;shape=mxgraph.mockup.text.bulletedList;textColor=#666666;mainText=,,,,;textSize=17;bulletStyle=none;strokeColor=none;fillColor=none;align=left;verticalAlign=top;fontSize=17;fontColor=#666666;" vertex="1" parent="38">
                    <mxGeometry x="260" y="95" width="140" height="82.5" as="geometry"/>
                </mxCell>
                <mxCell id="172" value="Lương: 10,000,000 VNĐ" style="rounded=1;whiteSpace=wrap;html=1;fontSize=12;" vertex="1" parent="38">
                    <mxGeometry x="260" y="165" width="140" height="28" as="geometry"/>
                </mxCell>
                <mxCell id="173" value="&lt;b&gt;Tên nhân viên&lt;/b&gt;" style="text;html=1;strokeColor=none;fillColor=none;align=center;verticalAlign=middle;whiteSpace=wrap;rounded=0;fontSize=12;" vertex="1" parent="38">
                    <mxGeometry x="275" y="45" width="130" height="30" as="geometry"/>
                </mxCell>
                <mxCell id="174" value="" style="whiteSpace=wrap;html=1;aspect=fixed;labelBackgroundColor=none;fontFamily=Georgia;fontSize=12;" vertex="1" parent="38">
                    <mxGeometry x="480" y="20" width="180" height="180" as="geometry"/>
                </mxCell>
                <mxCell id="175" value="&lt;font style=&quot;font-size: 14px&quot;&gt;Mã nhân viên:&lt;br&gt;Hệ số lương&lt;br&gt;Số ngày làm thêm&lt;/font&gt;" style="strokeWidth=1;shadow=0;dashed=0;align=center;html=1;shape=mxgraph.mockup.text.bulletedList;textColor=#666666;mainText=,,,,;textSize=17;bulletStyle=none;strokeColor=none;fillColor=none;align=left;verticalAlign=top;fontSize=17;fontColor=#666666;" vertex="1" parent="38">
                    <mxGeometry x="490" y="95" width="140" height="82.5" as="geometry"/>
                </mxCell>
                <mxCell id="176" value="Lương: 10,000,000 VNĐ" style="rounded=1;whiteSpace=wrap;html=1;fontSize=12;" vertex="1" parent="38">
                    <mxGeometry x="490" y="165" width="140" height="28" as="geometry"/>
                </mxCell>
                <mxCell id="177" value="&lt;b&gt;Tên nhân viên&lt;/b&gt;" style="text;html=1;strokeColor=none;fillColor=none;align=center;verticalAlign=middle;whiteSpace=wrap;rounded=0;fontSize=12;" vertex="1" parent="38">
                    <mxGeometry x="505" y="45" width="130" height="30" as="geometry"/>
                </mxCell>
                <mxCell id="178" value="" style="whiteSpace=wrap;html=1;aspect=fixed;labelBackgroundColor=none;fontFamily=Georgia;fontSize=12;" vertex="1" parent="38">
                    <mxGeometry x="30" y="225" width="180" height="180" as="geometry"/>
                </mxCell>
                <mxCell id="179" value="&lt;font style=&quot;font-size: 14px&quot;&gt;Mã nhân viên:&lt;br&gt;Hệ số lương&lt;br&gt;Số ngày làm thêm&lt;/font&gt;" style="strokeWidth=1;shadow=0;dashed=0;align=center;html=1;shape=mxgraph.mockup.text.bulletedList;textColor=#666666;mainText=,,,,;textSize=17;bulletStyle=none;strokeColor=none;fillColor=none;align=left;verticalAlign=top;fontSize=17;fontColor=#666666;" vertex="1" parent="38">
                    <mxGeometry x="40" y="300" width="140" height="82.5" as="geometry"/>
                </mxCell>
                <mxCell id="180" value="Lương: 10,000,000 VNĐ" style="rounded=1;whiteSpace=wrap;html=1;fontSize=12;" vertex="1" parent="38">
                    <mxGeometry x="40" y="370" width="140" height="28" as="geometry"/>
                </mxCell>
                <mxCell id="181" value="&lt;b&gt;Tên nhân viên&lt;/b&gt;" style="text;html=1;strokeColor=none;fillColor=none;align=center;verticalAlign=middle;whiteSpace=wrap;rounded=0;fontSize=12;" vertex="1" parent="38">
                    <mxGeometry x="55" y="250" width="130" height="30" as="geometry"/>
                </mxCell>
                <mxCell id="182" value="" style="whiteSpace=wrap;html=1;aspect=fixed;labelBackgroundColor=none;fontFamily=Georgia;fontSize=12;" vertex="1" parent="38">
                    <mxGeometry x="250" y="225" width="180" height="180" as="geometry"/>
                </mxCell>
                <mxCell id="183" value="&lt;font style=&quot;font-size: 14px&quot;&gt;Mã nhân viên:&lt;br&gt;Hệ số lương&lt;br&gt;Số ngày làm thêm&lt;/font&gt;" style="strokeWidth=1;shadow=0;dashed=0;align=center;html=1;shape=mxgraph.mockup.text.bulletedList;textColor=#666666;mainText=,,,,;textSize=17;bulletStyle=none;strokeColor=none;fillColor=none;align=left;verticalAlign=top;fontSize=17;fontColor=#666666;" vertex="1" parent="38">
                    <mxGeometry x="260" y="300" width="140" height="82.5" as="geometry"/>
                </mxCell>
                <mxCell id="184" value="Lương: 10,000,000 VNĐ" style="rounded=1;whiteSpace=wrap;html=1;fontSize=12;" vertex="1" parent="38">
                    <mxGeometry x="260" y="370" width="140" height="28" as="geometry"/>
                </mxCell>
                <mxCell id="185" value="&lt;b&gt;Tên nhân viên&lt;/b&gt;" style="text;html=1;strokeColor=none;fillColor=none;align=center;verticalAlign=middle;whiteSpace=wrap;rounded=0;fontSize=12;" vertex="1" parent="38">
                    <mxGeometry x="275" y="250" width="130" height="30" as="geometry"/>
                </mxCell>
                <mxCell id="186" value="" style="whiteSpace=wrap;html=1;aspect=fixed;labelBackgroundColor=none;fontFamily=Georgia;fontSize=12;" vertex="1" parent="38">
                    <mxGeometry x="480" y="225" width="180" height="180" as="geometry"/>
                </mxCell>
                <mxCell id="187" value="&lt;font style=&quot;font-size: 14px&quot;&gt;Mã nhân viên:&lt;br&gt;Hệ số lương&lt;br&gt;Số ngày làm thêm&lt;/font&gt;" style="strokeWidth=1;shadow=0;dashed=0;align=center;html=1;shape=mxgraph.mockup.text.bulletedList;textColor=#666666;mainText=,,,,;textSize=17;bulletStyle=none;strokeColor=none;fillColor=none;align=left;verticalAlign=top;fontSize=17;fontColor=#666666;" vertex="1" parent="38">
                    <mxGeometry x="490" y="300" width="140" height="82.5" as="geometry"/>
                </mxCell>
                <mxCell id="188" value="Lương: 10,000,000 VNĐ" style="rounded=1;whiteSpace=wrap;html=1;fontSize=12;" vertex="1" parent="38">
                    <mxGeometry x="490" y="370" width="140" height="28" as="geometry"/>
                </mxCell>
                <mxCell id="189" value="&lt;b&gt;Tên nhân viên&lt;/b&gt;" style="text;html=1;strokeColor=none;fillColor=none;align=center;verticalAlign=middle;whiteSpace=wrap;rounded=0;fontSize=12;" vertex="1" parent="38">
                    <mxGeometry x="505" y="250" width="130" height="30" as="geometry"/>
                </mxCell>
                <mxCell id="53" value="" style="endArrow=none;html=1;fontFamily=Georgia;fontSize=12;" parent="1" edge="1">
                    <mxGeometry width="50" height="50" relative="1" as="geometry">
                        <mxPoint x="70" y="-220" as="sourcePoint"/>
                        <mxPoint x="760" y="-220" as="targetPoint"/>
                    </mxGeometry>
                </mxCell>
                <mxCell id="151" value="Thông tin liên lạc" style="swimlane;fontStyle=0;childLayout=stackLayout;horizontal=1;startSize=30;horizontalStack=0;resizeParent=1;resizeParentMax=0;resizeLast=0;collapsible=1;marginBottom=0;labelBackgroundColor=none;fontFamily=Georgia;fontSize=7;" parent="1" vertex="1">
                    <mxGeometry x="120" y="-190" width="200" height="120" as="geometry"/>
                </mxCell>
                <mxCell id="152" value="Địa chỉ" style="text;strokeColor=none;fillColor=none;align=left;verticalAlign=middle;spacingLeft=4;spacingRight=4;overflow=hidden;points=[[0,0.5],[1,0.5]];portConstraint=eastwest;rotatable=0;labelBackgroundColor=none;fontFamily=Georgia;fontSize=7;" parent="151" vertex="1">
                    <mxGeometry y="30" width="200" height="30" as="geometry"/>
                </mxCell>
                <mxCell id="153" value="Số điện thoại" style="text;strokeColor=none;fillColor=none;align=left;verticalAlign=middle;spacingLeft=4;spacingRight=4;overflow=hidden;points=[[0,0.5],[1,0.5]];portConstraint=eastwest;rotatable=0;labelBackgroundColor=none;fontFamily=Georgia;fontSize=7;" parent="151" vertex="1">
                    <mxGeometry y="60" width="200" height="30" as="geometry"/>
                </mxCell>
                <mxCell id="154" value="Email" style="text;strokeColor=none;fillColor=none;align=left;verticalAlign=middle;spacingLeft=4;spacingRight=4;overflow=hidden;points=[[0,0.5],[1,0.5]];portConstraint=eastwest;rotatable=0;labelBackgroundColor=none;fontFamily=Georgia;fontSize=7;" parent="151" vertex="1">
                    <mxGeometry y="90" width="200" height="30" as="geometry"/>
                </mxCell>
                <mxCell id="158" value="&lt;font style=&quot;font-size: 12px&quot;&gt;Widget Socail&lt;/font&gt;" style="shape=ext;double=1;rounded=1;whiteSpace=wrap;html=1;labelBackgroundColor=none;fontFamily=Georgia;fontSize=7;" parent="1" vertex="1">
                    <mxGeometry x="460" y="-160" width="47" height="50" as="geometry"/>
                </mxCell>
                <mxCell id="159" value="&lt;font style=&quot;font-size: 12px&quot;&gt;Widget Socail&lt;/font&gt;" style="shape=ext;double=1;rounded=1;whiteSpace=wrap;html=1;labelBackgroundColor=none;fontFamily=Georgia;fontSize=7;" parent="1" vertex="1">
                    <mxGeometry x="510" y="-160" width="47" height="50" as="geometry"/>
                </mxCell>
                <mxCell id="160" value="&lt;font style=&quot;font-size: 12px&quot;&gt;Widget Socail&lt;/font&gt;" style="shape=ext;double=1;rounded=1;whiteSpace=wrap;html=1;labelBackgroundColor=none;fontFamily=Georgia;fontSize=7;" parent="1" vertex="1">
                    <mxGeometry x="560" y="-160" width="47" height="50" as="geometry"/>
                </mxCell>
                <mxCell id="161" value="&lt;font style=&quot;font-size: 12px&quot;&gt;Widget Socail&lt;/font&gt;" style="shape=ext;double=1;rounded=1;whiteSpace=wrap;html=1;labelBackgroundColor=none;fontFamily=Georgia;fontSize=7;" parent="1" vertex="1">
                    <mxGeometry x="610" y="-160" width="47" height="50" as="geometry"/>
                </mxCell>
                <mxCell id="162" value="&lt;font style=&quot;font-size: 17px&quot;&gt;Bảng lương&lt;/font&gt;" style="strokeWidth=1;shadow=0;dashed=0;align=center;html=1;shape=mxgraph.mockup.navigation.anchor;fontSize=17;fontColor=#666666;fontStyle=1;labelBackgroundColor=none;fontFamily=Georgia;" vertex="1" parent="1">
                    <mxGeometry x="210" y="-965" width="120" height="40" as="geometry"/>
                </mxCell>
                <mxCell id="163" value="Lương thấp" style="strokeWidth=1;shadow=0;dashed=0;align=center;html=1;shape=mxgraph.mockup.buttons.button;strokeColor=#666666;fontColor=#ffffff;mainText=;buttonStyle=round;fontSize=17;fontStyle=1;fillColor=#008cff;whiteSpace=wrap;" vertex="1" parent="1">
                    <mxGeometry x="80" y="-870" width="110" height="20" as="geometry"/>
                </mxCell>
                <mxCell id="164" value="Lương cao" style="strokeWidth=1;shadow=0;dashed=0;align=center;html=1;shape=mxgraph.mockup.buttons.button;strokeColor=#666666;fontColor=#ffffff;mainText=;buttonStyle=round;fontSize=17;fontStyle=1;fillColor=#008cff;whiteSpace=wrap;" vertex="1" parent="1">
                    <mxGeometry x="190" y="-870" width="120" height="20" as="geometry"/>
                </mxCell>
                <mxCell id="166" value="Sắp xếp theo lương" style="text;html=1;strokeColor=none;fillColor=none;align=center;verticalAlign=middle;whiteSpace=wrap;rounded=0;fontStyle=1;fontSize=17;" vertex="1" parent="1">
                    <mxGeometry x="20" y="-900" width="280" height="30" as="geometry"/>
                </mxCell>
            </root>
        </mxGraphModel>
    </diagram>
</mxfile>